<?xml version="1.0" encoding="UTF-8"?>
<!DOCTYPE svg PUBLIC "-//W3C//DTD SVG 1.1//EN" "http://www.w3.org/Graphics/SVG/1.1/DTD/svg11.dtd">
<svg xmlns="http://www.w3.org/2000/svg" version="1.1" width="512px" height="512px" style="shape-rendering:geometricPrecision; text-rendering:geometricPrecision; image-rendering:optimizeQuality; fill-rule:evenodd; clip-rule:evenodd" xmlns:xlink="http://www.w3.org/1999/xlink">
<g><path style="opacity:0.978" fill="#000000" d="M 81.5,42.5 C 97.2372,41.1839 111.57,45.0172 124.5,54C 132.136,60.6352 139.47,67.6352 146.5,75C 147.729,75.7811 149.062,76.2811 150.5,76.5C 202.834,54.6336 256.834,49.4669 312.5,61C 329.552,64.4061 345.885,69.9061 361.5,77.5C 366.63,73.2022 371.296,68.3689 375.5,63C 395.976,43.6314 419.643,38.2981 446.5,47C 476.372,63.0592 492.705,88.0592 495.5,122C 495.085,135.575 491.252,148.075 484,159.5C 478.684,165.65 473.184,171.65 467.5,177.5C 491.198,222.02 500.364,269.353 495,319.5C 487.514,362.32 466.014,396.154 430.5,421C 391.389,446.706 348.389,461.706 301.5,466C 240.763,473.178 181.763,466.178 124.5,445C 92.3111,431.5 65.1444,411.333 43,384.5C 19.9164,351.502 10.5831,314.835 15,274.5C 18.1385,240.276 27.6385,207.943 43.5,177.5C 40.5899,173.083 37.0899,169.083 33,165.5C 15.5964,144.072 11.9298,120.406 22,94.5C 32.7908,66.5262 52.6242,49.1929 81.5,42.5 Z"/></g>
<g><path style="opacity:1" fill="#fefefe" d="M 239.5,74.5 C 287.591,72.0826 332.591,82.5826 374.5,106C 429.866,142.495 463.366,193.662 475,259.5C 486.647,330.029 461.481,382.529 399.5,417C 372.812,431.09 344.479,440.09 314.5,444C 245.478,456.395 179.144,448.061 115.5,419C 45.7782,380.687 20.2782,322.52 39,244.5C 54.2724,182.377 89.1057,134.877 143.5,102C 173.735,86.2782 205.735,77.1115 239.5,74.5 Z"/></g>
<g><path style="opacity:1" fill="#020202" d="M 160.5,180.5 C 206.875,180.033 227.375,202.699 222,248.5C 212.202,288.964 187.036,314.131 146.5,324C 121.818,326.747 104.318,316.913 94,294.5C 82.2202,257.784 90.3869,226.284 118.5,200C 130.922,189.954 144.922,183.454 160.5,180.5 Z"/></g>
<g><path style="opacity:1" fill="#010101" d="M 333.5,180.5 C 378.398,180.243 407.231,201.576 420,244.5C 423.883,261.381 423.216,278.048 418,294.5C 403.698,322.049 381.864,330.549 352.5,320C 308.274,302.095 287.107,269.261 289,221.5C 295.518,198.822 310.351,185.155 333.5,180.5 Z"/></g>
<g><path style="opacity:1" fill="#fcfcfc" d="M 173.5,205.5 C 188.634,203.644 199.134,209.644 205,223.5C 207.167,245.998 197,256.831 174.5,256C 160.28,250.778 153.78,240.612 155,225.5C 158.291,216.047 164.458,209.38 173.5,205.5 Z"/></g>
<g><path style="opacity:1" fill="#fcfcfc" d="M 323.5,205.5 C 339.628,203.644 350.461,210.311 356,225.5C 357.266,241.14 350.433,251.307 335.5,256C 313.534,256.362 303.701,245.529 306,223.5C 309.353,214.982 315.186,208.982 323.5,205.5 Z"/></g>
<g><path style="opacity:1" fill="#030303" d="M 243.5,269.5 C 255.914,269.178 268.248,270.012 280.5,272C 298.058,277.022 302.558,287.522 294,303.5C 291.167,306.333 288.333,309.167 285.5,312C 279.053,316.113 272.886,320.613 267,325.5C 266.741,329.145 268.241,331.978 271.5,334C 289.284,348.56 308.951,351.56 330.5,343C 341.593,342.009 345.427,346.842 342,357.5C 311.364,372.535 283.197,368.868 257.5,346.5C 232.376,367.494 204.71,371.661 174.5,359C 168.68,352.783 169.346,347.45 176.5,343C 178.833,342.333 181.167,342.333 183.5,343C 207.715,352.363 228.882,347.863 247,329.5C 247.896,326.975 247.396,324.808 245.5,323C 237.102,317.937 229.269,312.104 222,305.5C 213.89,294.782 214.723,284.948 224.5,276C 230.59,272.738 236.924,270.571 243.5,269.5 Z"/></g>
</svg>
