<svg xmlns="http://www.w3.org/2000/svg" width="116.089" height="39.087" viewBox="0 0 116.089 39.087"><g id="Grupo_15665" data-name="Grupo 15665" transform="translate(-1205.516 414.5)"><g id="Grupo_14856" data-name="Grupo 14856" transform="translate(1255.743 -413.845)"><path id="Trazado_17338" data-name="Trazado 17338" d="M133.9,262.3v-.542c0-.664-.095-.8-.556-.827s-.678.23-.678.813v4.69c0,.6.217.881.651.881s.61-.312.61-1.206a5.608,5.608,0,0,0-.027-.583h1.911v.99a3.443,3.443,0,0,1-.244,1.5c-.23.651-1.1,1.071-2.3,1.071-1.64,0-2.467-.773-2.467-2.3v-5.34c0-1.613.827-2.318,2.684-2.318a3.232,3.232,0,0,1,1.3.258c.732.3,1,.908,1,2.277l-.013.637Z" transform="translate(-130.799 -259.117)" fill="#fff"></path><path id="Trazado_17339" data-name="Trazado 17339" d="M147.361,259.1a2.3,2.3,0,0,1,2.06.894,3.744,3.744,0,0,1,.325,2.06V266.1c0,1.274-.027,1.45-.311,1.992a2.489,2.489,0,0,1-2.318.935,2.045,2.045,0,0,1-2.345-2.2l-.013-.786v-4.635C144.759,259.856,145.6,259.1,147.361,259.1Zm-.108,8.159c.393,0,.6-.271.6-.786V261.7c0-.583-.162-.8-.6-.8s-.624.23-.624.759v4.527C146.629,267.012,146.765,267.256,147.253,267.256Z" transform="translate(-139.076 -259.097)" fill="#fff"></path><path id="Trazado_17340" data-name="Trazado 17340" d="M164.115,269.126h-1.64l-1.789-5.069v5.069h-1.667v-9.6h1.694l1.694,5.069V259.53h1.708Z" transform="translate(-147.53 -259.354)" fill="#fff"></path><path id="Trazado_17341" data-name="Trazado 17341" d="M175,265.8v.678c0,.555.217.84.637.84.447,0,.637-.271.637-.936,0-.569-.122-.745-.827-1.3l-.908-.691a2.507,2.507,0,0,1-1.247-2.507,2.74,2.74,0,0,1,.515-2.02,2.392,2.392,0,0,1,1.9-.7,2,2,0,0,1,2.277,2.264v.935H176.27c-.013-.325.136-1.437-.624-1.409-.42.013-.61.257-.6.854.013.691.393.962,1.179,1.586s1.789,1.328,1.83,2.209v1.111c0,1.545-.691,2.345-2.507,2.4a2.184,2.184,0,0,1-1.952-.881,4.258,4.258,0,0,1-.366-2.426Z" transform="translate(-155.954 -259.136)" fill="#fff"></path><path id="Trazado_17342" data-name="Trazado 17342" d="M190.421,259.53v1.816h-1.369l-.014,7.78h-1.87v-7.78H185.84V259.53Z" transform="translate(-163.432 -259.354)" fill="#fff"></path><path id="Trazado_17343" data-name="Trazado 17343" d="M203.691,269.126h-1.952l-1.653-4.351v4.351H198.2v-9.6h2.656a3.2,3.2,0,0,1,1.653.244c.42.244.61.691.61,1.491v1.572c0,1.03-.339,1.491-1.247,1.694Zm-3.633-6.14h.624c.447,0,.61-.2.61-.732v-.2c0-.569-.108-.719-.515-.719h-.719Z" transform="translate(-170.761 -259.354)" fill="#fff"></path><path id="Trazado_17344" data-name="Trazado 17344" d="M217.527,266.727a2.707,2.707,0,0,1-.379,1.721,2.5,2.5,0,0,1-2.169.881,2.39,2.39,0,0,1-2.006-.84,2.838,2.838,0,0,1-.379-1.749v-7.21h1.884v7.142c0,.61.19.868.637.868.393,0,.569-.258.569-.813v-7.2h1.843Z" transform="translate(-179.294 -259.354)" fill="#fff"></path><path id="Trazado_17345" data-name="Trazado 17345" d="M227.764,259.53l.868,3.429.881-3.429h1.83l-1.8,5.95v3.646h-1.884v-3.687l-1.735-5.909Z" transform="translate(-187.196 -259.354)" fill="#fff"></path><path id="Trazado_17346" data-name="Trazado 17346" d="M240.281,259.53h3.863v1.762h-2.006v1.762h2.006v1.789h-2.006v2.521h2.006v1.762h-3.863Z" transform="translate(-195.709 -259.354)" fill="#fff"></path><path id="Trazado_17347" data-name="Trazado 17347" d="M256.44,269.126H254.8l-1.789-5.069v5.069h-1.667v-9.6h1.694l1.694,5.069V259.53h1.707Z" transform="translate(-202.268 -259.354)" fill="#fff"></path><path id="Trazado_17348" data-name="Trazado 17348" d="M265.8,259.53h2.67a3.379,3.379,0,0,1,1.545.2c.5.2.691.637.691,1.681l-.027,5.72a2.368,2.368,0,0,1-.217,1.288,1.032,1.032,0,0,1-.474.488,2.259,2.259,0,0,1-1.315.217H265.8Zm1.857,7.834h.569c.447,0,.624-.217.624-.8v-4.649c0-.488-.122-.624-.6-.624h-.6Z" transform="translate(-210.841 -259.354)" fill="#fff"></path><path id="Trazado_17349" data-name="Trazado 17349" d="M282.332,259.1a2.3,2.3,0,0,1,2.06.894,3.744,3.744,0,0,1,.325,2.06V266.1c0,1.274-.027,1.45-.311,1.992a2.49,2.49,0,0,1-2.318.935,2.044,2.044,0,0,1-2.345-2.2l-.014-.786v-4.635C279.73,259.856,280.57,259.1,282.332,259.1Zm-.108,8.159c.393,0,.6-.271.6-.786V261.7c0-.583-.163-.8-.6-.8s-.624.23-.624.759v4.527C281.6,267.012,281.736,267.256,282.224,267.256Z" transform="translate(-219.098 -259.097)" fill="#fff"></path><path id="Trazado_17350" data-name="Trazado 17350" d="M132.075,290.878h7.874v3.983h-3.771v3.861h3.771V302.7h-3.771v9.534h-4.1Z" transform="translate(-131.556 -277.94)" fill="#fff"></path><path id="Trazado_17351" data-name="Trazado 17351" d="M165.627,306.9c0,1.991-.181,2.806-.845,3.832-.785,1.237-2.564,1.961-4.827,1.961a5.319,5.319,0,0,1-4.465-1.871c-.633-.935-.845-1.931-.845-3.892v-16.05h4.194v15.9c0,1.357.422,1.931,1.418,1.931.875,0,1.267-.574,1.267-1.81v-16.02h4.1Z" transform="translate(-144.937 -277.94)" fill="#fff"></path><path id="Trazado_17352" data-name="Trazado 17352" d="M194.675,290.878v4.043h-3.047l-.03,17.317h-4.164V294.921h-2.956v-4.043Z" transform="translate(-162.625 -277.94)" fill="#fff"></path><path id="Trazado_17353" data-name="Trazado 17353" d="M217.947,290.878a9.3,9.3,0,0,1,2.836.272,2.526,2.526,0,0,1,1.569,2.625v3.59a3.3,3.3,0,0,1-.272,1.629,2.583,2.583,0,0,1-1.9,1.328c1.659.483,2.263,1.358,2.263,3.138v4.374a5.984,5.984,0,0,1-.392,2.776c-.483,1.116-1.539,1.629-3.289,1.629h-7.12v-21.36Zm-2.172,7.844h.272c.151,0,.3.03.422.03,1.659,0,2.051-.241,2.051-1.3v-1.237c0-1-.362-1.327-1.3-1.327h-1.448Zm0,9.5h.664c1.629,0,1.931-.241,1.931-1.479v-2.956c0-1.056-.3-1.358-1.3-1.358h-1.3Z" transform="translate(-178.73 -277.94)" fill="#fff"></path><path id="Trazado_17354" data-name="Trazado 17354" d="M248.231,289.915c2.142,0,3.831.724,4.586,1.991.573,1,.724,1.931.724,4.586v9.021c0,2.836-.061,3.228-.694,4.435-.724,1.328-2.534,2.082-5.159,2.082-3.379,0-5.159-1.659-5.22-4.887l-.03-1.75V295.074C242.438,291.6,244.309,289.915,248.231,289.915Zm-.241,18.162c.875,0,1.328-.6,1.328-1.75v-10.62c0-1.3-.362-1.78-1.328-1.78s-1.388.513-1.388,1.69v10.077C246.6,307.534,246.9,308.077,247.989,308.077Z" transform="translate(-196.988 -277.369)" fill="#fff"></path><path id="Trazado_17355" data-name="Trazado 17355" d="M281.9,308.226v4.013h-7.331v-21.36h4.194v17.348Z" transform="translate(-216.038 -277.94)" fill="#fff"></path></g><g id="Grupo_14859" data-name="Grupo 14859" transform="translate(1205.516 -414.5)"><path id="Trazado_17356" data-name="Trazado 17356" d="M71.976,259.1h14.13v6.4H78.566v6.552h5.8v6.4h-5.8V293.4h-6.59Z" transform="translate(-45.696 -258.442)" fill="#fff"></path><path id="Trazado_17357" data-name="Trazado 17357" d="M54.586,273.484s-1.585.055-2.494.059-2.482-.077-2.617-.071-.888-.365-1.161-.41-.449.331-.449.331l-10.17-1.382s-1.8-.4-1.879-.435a13.586,13.586,0,0,0-1.473.379c-.077.023-2.555,0-2.613.007s-.88.188-1.073.251l.25-.41L26.838,273l4.18-1.467.074-.326,1.4-2.422s.671-1.247.743-1.35a8.7,8.7,0,0,0,.164-1.22s-.049,1.279-.046,1.367-.663,1.284-.663,1.284l1.213.352.98.121.662.356.5-.156-.355-.162,2.072.41-.416-.711.52.648a1.666,1.666,0,0,0,.986.3,2.351,2.351,0,0,0,1.145-.648,3.3,3.3,0,0,0-.019-.613s-.8-1.228-1.319-1.4a2.343,2.343,0,0,0-1.006-.059h-.006a1.224,1.224,0,0,1-.227.028c-.075,0-.15,0-.224,0-.149,0-.3-.011-.446-.024h-.006l-.011,0a2.005,2.005,0,0,0-.431-.1,2.9,2.9,0,0,0-.449-.019,1.789,1.789,0,0,0-.436.067,1.336,1.336,0,0,0-.374.171l-.311,1.068c.135.185.425.518.425.518L36.2,268.9s.6-.347.723-.421l-.353.248-.175.126-.085.065a.616.616,0,0,0-.075.065l-.008.01-.01,0c-.369.063-.74.112-1.109.168l-.031,0-.021-.026c-.154-.2-.3-.4-.456-.6l-.019-.025.009-.031.318-1.125.006-.023.017-.012a1.408,1.408,0,0,1,.439-.2,1.874,1.874,0,0,1,.47-.069,3.043,3.043,0,0,1,.468.029,1.9,1.9,0,0,1,.449.115c.142.018.287.032.431.04l.081,0a10.629,10.629,0,0,1-1.078-.8l-.231-.181-.635.119-.63-.545-.861-.324-.636-.705c-.025.053-.329.633-.329.633a3.811,3.811,0,0,1-.276.492s-.572.121-.64.135c-.035.007-.069.012-.106.016l-.028,0a.265.265,0,0,1-.036,0,.315.315,0,0,1-.062-.012,1.435,1.435,0,0,1-.377-.2c-.114-.079-.222-.163-.329-.252l0,0,0,0-.449-.522c-.151-.171-.3-.351-.453-.514a.463.463,0,0,1-.034-.038.366.366,0,0,1-.024-.044.552.552,0,0,1-.031-.088,1.4,1.4,0,0,1-.034-.174,2.924,2.924,0,0,1-.026-.347c-.005-.231,0-.461.015-.69.009.23.019.459.042.687.012.114.026.227.046.338a1.312,1.312,0,0,0,.039.162.268.268,0,0,0,.072.128c.168.164.324.331.479.5s.306.338.455.509c.1.083.209.165.318.239a1.478,1.478,0,0,0,.337.184.224.224,0,0,0,.038.008h.015l.023,0c.031,0,.063-.008.1-.014.065-.012.13-.027.2-.042.122-.03.245-.063.366-.1.078-.15.156-.3.236-.45l.253-.473q.115-.217.235-.431l.034-.113a5.139,5.139,0,0,0,.427-.789c.009-.126.008-.552.031-.627s.114-.366.114-.366-.263-.405-.24-.481a2.018,2.018,0,0,0-.017-.55.639.639,0,0,0-.107-.21,1.558,1.558,0,0,0,.267-.71,1.775,1.775,0,0,0-.378-1.109,3.492,3.492,0,0,0-2.542-.844l.645.206a2.685,2.685,0,0,0-2.177.679,2.045,2.045,0,0,0-.6,1.646c.021.275.243.982.21,1.146l-.059.14.04.487s.028.1-.148.079a3.812,3.812,0,0,1-.7-.041c-.252-.068-.8-.427-.889-.412s-1.453.419-1.453.419l-1.289.014a35.675,35.675,0,0,1-3.479,1.332c-.462.039-1.815.455-2,.449s-.886.1-.886.1.039.512.042.892a1.268,1.268,0,0,1-.239.053c-.094,0-1.1.221-1.157.241s-2.553,1.317-2.717,1.453-2.32,1.554-2.544,1.617-.839.213-.839.213L9.1,270.21l-.142.267.217.351.411-.069-.423.294.2.539.148-.061s-.2.325-.12.379.2.276.252.274.457-.427.259-.12a4.554,4.554,0,0,0-.285.5l.325.2.68-.49,1.335-.585a3.842,3.842,0,0,1,.563-1.275,12.065,12.065,0,0,1,2.273-1.233c.429-.088,2.767-1.041,2.8-1.08s.995-.255,1.506-.394c.077.048.158.095.245.141a6.725,6.725,0,0,1,1.378-.392,12.192,12.192,0,0,1,1.637-.1c.035,0,.463.169.463.169l2.075.118-2.1.188s.1,1.6.062,1.651l-.2.294.1.535,1.318,1.338-1.452-1.209s-.2.32-.148.493a3.07,3.07,0,0,0,.3.529L22,271.28l-.279,1.123s-.625.445-.587.481.531,1.3.531,1.3a3.806,3.806,0,0,1,2.273-1.347,4.949,4.949,0,0,0-2.4,2.226c-.864,1.654.115,4.229.115,4.229a3.14,3.14,0,0,0,.163,1.673,5.377,5.377,0,0,0,1.408,1.849,3.425,3.425,0,0,1,1.094,1.394c.507,1.037,1.853,3.709,1.928,3.719a1.833,1.833,0,0,0,.163-.3,12.074,12.074,0,0,0,.905,1.258,3.445,3.445,0,0,1,1.452.8c-1.47-1-3.5-.758-4.392-.707-.4.023-1.431.616-2.527.927a15.272,15.272,0,0,1-2.887.5l.027-.121c-.442-.235-.977-.585-1.1-.637a3.816,3.816,0,0,0-.92-.017l-.434.469s-.724,2.147-.763,2.154-.6,1.506-.687,1.6-.552,2.477-.57,2.512-.132.841.365.9c.107.013.612-.4.612-.4s.764-1.146,1.468-2.064c.169-.221.364-.456.554-.676a7.906,7.906,0,0,0,1-.529.362.362,0,0,0,.116-.173c.458-.138.966-.281,1.223-.338a63.007,63.007,0,0,1,6.7-.4l1.339-.21s1.06-.067,1.2-.085a4.215,4.215,0,0,0,2.029-.978c.273-.36.745-1.431.593-1.787-.07-.164-.66-2.8-.91-3.6-.2-.624-.875-2.446-1.2-3.243l0,0,.725,1.631a7.834,7.834,0,0,0,.436-1.742c-.1-.147-1.424-1.961-1.424-1.961l-.229-.945s-2.083.263-2.021.237,2.962-.615,2.962-.615l.01-1.1c2.046-1.184,5.845-3.132,6.168-3.04a16.28,16.28,0,0,0,2.4.778,9.883,9.883,0,0,0,2.234.167,9.932,9.932,0,0,0,1.318-.372,16.745,16.745,0,0,1,3.5-.048,5.621,5.621,0,0,1,.506.46c.063.094.088.635.218.938s.756.43.756.43.96-.181,1.151-.228,2.009-1.333,2.009-1.333,1.329-.14,2.058-.29a7.467,7.467,0,0,0,2.137-1.494l.185-.59Z" transform="translate(-8.335 -258.173)" fill="#029d97"></path><path id="Trazado_17358" data-name="Trazado 17358" d="M16.3,257.489c-4.9,0-8.88,3.245-8.88,7.248v21.12c0,4,3.975,7.249,8.88,7.249s8.88-3.245,8.88-7.249V280.4H18.5v4.424a2.088,2.088,0,0,1-2.193,2.023,2.088,2.088,0,0,1-2.193-2.023v-19.1a2.064,2.064,0,0,1,2.193-1.981,2.168,2.168,0,0,1,2.193,1.981v3.161h6.686v-4.148C25.183,260.734,21.208,257.489,16.3,257.489Z" transform="translate(-7.424 -257.489)" fill="#fff"></path><path id="Trazado_17359" data-name="Trazado 17359" d="M66.881,283.9a22.193,22.193,0,0,1-2.344,6.889,23.593,23.593,0,0,1-16.279,11.987,21.974,21.974,0,0,1-6.7.23,23.4,23.4,0,0,1-6.35-1.681,22.317,22.317,0,0,1-7.859-5.551,22,22,0,0,1-1.96-2.509l.059-.043a20.334,20.334,0,0,0,10.214,6.836,21.236,21.236,0,0,0,6.019.857,19.439,19.439,0,0,0,15.233-7.508,17.726,17.726,0,0,0,2.7-4.867,16.3,16.3,0,0,0,.984-5.277Z" transform="translate(-18.077 -272.771)" fill="#ff2900"></path><g id="Grupo_14857" data-name="Grupo 14857" transform="translate(39.731 15.299)"><path id="Trazado_17360" data-name="Trazado 17360" d="M106.424,295.067c.135-.007,1.707.075,2.617.071s2.494-.059,2.494-.059l.125.188-.185.59a7.459,7.459,0,0,1-2.137,1.494c-.729.151-2.058.29-2.058.29a12.834,12.834,0,0,1-2.265,1.372Z" transform="translate(-105.015 -295.067)" fill="#029d97"></path></g><g id="Grupo_14858" data-name="Grupo 14858" transform="translate(42.525 7.677)"><path id="Trazado_17361" data-name="Trazado 17361" d="M118.12,280.05a3.131,3.131,0,0,1-.62,1.383h0q-.048.061-.1.12a3.145,3.145,0,0,1-5.324-.966l-.011-.029a3.146,3.146,0,1,1,6.054-.507Z" transform="translate(-111.88 -276.345)" fill="#fff"></path><path id="Trazado_17362" data-name="Trazado 17362" d="M118.162,279.266a3.145,3.145,0,1,0-6.1,1.29l-.017.023.028.006h0a3.15,3.15,0,0,0,1.756,1.815,3.17,3.17,0,0,0,1.186.235h.011a3.147,3.147,0,0,0,2.372-1.084q.051-.059.1-.12h0a3.156,3.156,0,0,0,.663-2.165Zm-.251.745a2.936,2.936,0,0,1-.487,1.158l-.1-.355.537-1.146-.831.542-.748-1.124-.073,1.387-1.35.267,1.2.554-.56.888,1.27-.718.373.051a2.929,2.929,0,0,1-1.884.9l.241-.229-.871.211c-.041-.006-.083-.009-.123-.017-.075-.014-.149-.033-.223-.052l-.729-.493s.057.118.129.265a2.938,2.938,0,0,1-1.349-1.453l.476.107.744,1.081-.019-.992,1.319-.1-1.171-.722.383-1.3-1.06.764-.589-.8.1,1.262-.3.4a2.931,2.931,0,0,1,.1-1.987l.1.325.268-.953a2.921,2.921,0,0,1,.223-.263l.892-.379-.384-.049a2.909,2.909,0,0,1,1.607-.484,2.946,2.946,0,0,1,.373.026l-.344.371-1.252.136.832.455-.566,1.174,1.271-.652.944,1.019-.165-1.232.942-.2-1.118-.515-.259-.5a2.94,2.94,0,0,1,1.693,1.1l-.317-.085.7.779a2.892,2.892,0,0,1,.092.276l.011.959.094-.125A2.923,2.923,0,0,1,117.911,280.011Z" transform="translate(-111.88 -276.345)" fill="#1e4d69"></path></g></g></g></svg>