<svg width="120" height="31" viewBox="0 0 120 31" fill="none" xmlns="http://www.w3.org/2000/svg">
<path d="M31.5033 11.3848C31.2277 10.3564 30.5681 9.49739 29.6467 8.96552C27.7439 7.86712 25.3024 8.52139 24.2032 10.4241L18.0185 21.1364C17.9015 21.3396 17.7375 21.5028 17.5328 21.6213C16.8985 21.9877 16.0842 21.7699 15.7185 21.1349C15.7185 21.1349 12.515 15.5859 11.4273 13.7016L11.0702 13.0828C10.8931 12.7757 10.8454 12.4177 10.937 12.0752C11.0286 11.7327 11.2488 11.4463 11.5559 11.2685C11.863 11.0915 12.2209 11.0445 12.5634 11.1361C12.906 11.2277 13.1923 11.4479 13.3701 11.755L16.1019 16.4865C16.1142 16.5088 16.1319 16.5257 16.145 16.5465C16.1711 16.5866 16.1981 16.6258 16.2289 16.6635C16.2566 16.6974 16.2858 16.7282 16.3166 16.7582C16.3466 16.7882 16.3767 16.8175 16.4098 16.8444C16.4475 16.8752 16.4867 16.9029 16.5275 16.9291C16.5483 16.9429 16.5652 16.9599 16.5876 16.9722C16.6006 16.9799 16.6145 16.983 16.6268 16.9899C16.6692 17.013 16.713 17.0307 16.7584 17.0492C16.7962 17.0646 16.8339 17.0799 16.8724 17.0915C16.9139 17.1038 16.9563 17.1115 16.9986 17.12C17.0409 17.1284 17.0825 17.1369 17.1248 17.1415C17.1672 17.1454 17.2095 17.1446 17.2526 17.1446C17.2949 17.1446 17.3373 17.1454 17.3788 17.1415C17.4219 17.1377 17.4643 17.1284 17.5066 17.12C17.5482 17.1115 17.5905 17.1038 17.6313 17.0915C17.6706 17.0799 17.7083 17.0638 17.7475 17.0484C17.7914 17.0307 17.8345 17.013 17.8761 16.9907C17.8892 16.9837 17.9038 16.9799 17.9161 16.9722C17.9384 16.9591 17.9561 16.9422 17.9777 16.9283C18.0177 16.9021 18.0562 16.8752 18.0931 16.8452C18.127 16.8175 18.1578 16.7875 18.1886 16.7574C18.2186 16.7274 18.2471 16.6974 18.2748 16.6643C18.3056 16.6266 18.3333 16.5866 18.3595 16.5458C18.3733 16.525 18.3903 16.508 18.4026 16.4857C18.4103 16.4726 18.4133 16.4595 18.4203 16.4465C18.4434 16.4041 18.4611 16.3595 18.4795 16.3148C18.4949 16.2771 18.5103 16.2394 18.5219 16.2009C18.5342 16.1594 18.5419 16.117 18.5504 16.0747C18.5588 16.0324 18.5673 15.9908 18.5719 15.9477C18.5758 15.9053 18.575 15.863 18.575 15.8207C18.575 15.7783 18.5758 15.736 18.5719 15.6944C18.5681 15.6513 18.5588 15.6098 18.5504 15.5667C18.5419 15.5243 18.5342 15.4828 18.5219 15.4412C18.5103 15.4027 18.4949 15.365 18.4795 15.3273C18.4618 15.2826 18.4434 15.2388 18.4203 15.1957C18.4133 15.1826 18.4103 15.1695 18.4026 15.1564L15.6708 10.4249C15.1389 9.50278 14.2792 8.8439 13.2516 8.56834C12.2232 8.29201 11.1495 8.43364 10.2281 8.96629C9.30597 9.49816 8.64709 10.3579 8.37153 11.3855C8.09597 12.4139 8.2376 13.4869 8.76947 14.409L8.77563 14.4052C8.83336 14.5198 8.90033 14.6353 8.96883 14.7546L13.4178 22.4611C14.1552 23.7381 15.4969 24.4524 16.8754 24.4524C17.5513 24.4524 18.2355 24.2807 18.8613 23.9189C19.4679 23.5687 19.9728 23.0638 20.32 22.4603L26.5039 11.7496C26.8703 11.1154 27.6839 10.8968 28.3182 11.2631C28.6253 11.4402 28.8454 11.7265 28.937 12.0698C29.0286 12.4123 28.9817 12.7703 28.8039 13.0774L23.3873 22.4588C23.3873 22.4596 23.3873 22.4595 23.3865 22.4603C23.3865 22.4611 23.3858 22.4611 23.385 22.4619C23.0186 23.0969 23.2357 23.9097 23.8715 24.2761C24.5065 24.6433 25.3193 24.4254 25.6857 23.7896C25.6857 23.7889 25.6865 23.7881 25.6865 23.7881C25.6865 23.7873 25.6872 23.7873 25.6872 23.7866L31.1038 14.4052C31.6372 13.4869 31.7788 12.4131 31.5033 11.3848Z" fill="#4E20E4"/>
<path d="M45.8802 13.901L43.2308 21.1795L40.6514 13.9387L40.6376 13.901H38.4654L42.3179 24.076L42.3318 24.1129H43.8958L47.9661 13.901H45.8802Z" fill="#4E20E4"/>
<path d="M50.8488 16.5696H48.9891V24.1129H50.8488V16.5696Z" fill="#4E20E4"/>
<path d="M58.0187 13.1797V17.2493C57.4784 16.7205 56.6632 16.3964 55.8543 16.3964C53.5705 16.3964 52.205 18.3916 52.205 20.3197C52.205 22.5442 53.7953 24.2861 55.825 24.2861C56.7718 24.2861 57.6115 23.9066 58.1042 23.2631L58.1811 24.1129H59.8922V13.1797H58.0187ZM56.1575 22.6427C54.8174 22.6427 54.0947 21.4681 54.0947 20.3636C54.0947 18.8388 55.1469 18.0406 56.1868 18.0406C56.9003 18.0406 57.5669 18.3685 58.0195 18.9411V21.5328C57.5885 22.3502 56.7756 22.6427 56.1575 22.6427Z" fill="#4E20E4"/>
<path d="M64.7962 16.3964C63.7917 16.3964 62.6286 16.6735 61.6834 17.1377L61.6372 17.1608L62.1529 18.584L62.2114 18.5532C63.0266 18.1268 63.7894 17.9105 64.4783 17.9105C65.5074 17.9105 66.0077 18.42 66.0077 19.4684V19.5708C65.5289 19.4738 65.0779 19.4253 64.6653 19.4253C63.884 19.4253 61.3339 19.6039 61.3339 21.9061C61.3339 23.5502 62.7033 24.2861 64.0595 24.2861C64.9524 24.2861 65.6298 24.0275 66.1247 23.4964L66.2017 24.1129H67.8674V19.5692C67.8681 17.4933 66.8059 16.3964 64.7962 16.3964ZM66.0085 20.8131V22.1686C65.4343 22.6558 64.9301 22.8737 64.3782 22.8737C63.7924 22.8737 63.1659 22.6042 63.1659 21.8492C63.1659 20.7939 64.3967 20.6799 64.9262 20.6799C65.2511 20.6799 65.5959 20.7223 66.0085 20.8131Z" fill="#4E20E4"/>
<path d="M72.5912 19.56C71.9492 19.2944 71.3434 19.0443 71.3434 18.5747C71.3434 18.1776 71.6744 17.9105 72.1655 17.9105C72.6481 17.9105 73.2108 18.1314 73.5987 18.4731L73.6403 18.5101L74.6979 17.3594L74.6563 17.3201C74.0174 16.7243 73.133 16.3957 72.1647 16.3957C70.3613 16.3957 69.5546 17.5549 69.5546 18.7033C69.5546 20.1127 70.7823 20.6161 71.5951 20.9486L71.6282 20.9624C72.2756 21.2295 72.9445 21.5051 72.9445 21.9777C72.9445 22.5257 72.4157 22.7713 71.8907 22.7713C71.3003 22.7713 70.8039 22.5257 70.2296 21.9515L70.1912 21.913L69.042 22.9999L69.0797 23.0415C69.8101 23.8443 70.8239 24.2861 71.9353 24.2861C73.2523 24.2861 74.791 23.6519 74.791 21.863C74.791 20.4267 73.4671 19.9048 72.5912 19.56Z" fill="#4E20E4"/>
<path d="M79.598 13.901H76.4105V24.1129H78.3141V20.2035H79.598C80.5617 20.2035 81.4561 19.9525 82.115 19.4976C82.9216 18.9411 83.3481 18.0929 83.3481 17.0453C83.3481 14.8731 81.4645 13.901 79.598 13.901ZM78.3141 15.5443H79.5549C80.6417 15.5443 81.3437 16.1501 81.3437 17.0884C81.3437 18.0652 80.6448 18.5601 79.2662 18.5601H78.3141V15.5443Z" fill="#4E20E4"/>
<path d="M89.0186 16.5288C88.7284 16.4372 88.4475 16.3964 88.1073 16.3964C87.4353 16.3964 86.8441 16.7697 86.3477 17.5071L86.2707 16.5696H84.5596V24.1129H86.4339V19.0651C86.7879 18.45 87.3106 18.1121 87.9064 18.1121C88.1835 18.1121 88.3867 18.1576 88.586 18.2638L88.6514 18.2992L89.0702 16.545L89.0186 16.5288Z" fill="#4E20E4"/>
<path d="M91.8566 16.5696H89.9969V24.1129H91.8566V16.5696Z" fill="#4E20E4"/>
<path d="M104.436 17.3416C103.957 16.7228 103.253 16.3964 102.4 16.3964C101.668 16.3964 100.646 16.615 99.8848 17.6418C99.8471 17.5672 99.8094 17.4987 99.764 17.4302C99.286 16.7636 98.5578 16.3964 97.7126 16.3964C96.8929 16.3964 96.0901 16.7951 95.5374 17.4694L95.472 16.5696H93.7601V24.1129H95.6198V18.9981C96.0015 18.5186 96.645 18.0398 97.2362 18.0398C97.6965 18.0398 98.0382 18.2099 98.226 18.5324C98.5062 18.9804 98.5062 19.7224 98.5062 20.3197V24.1129H100.366V20.1896C100.366 19.6816 100.344 19.3152 100.297 19.0073C100.735 18.41 101.362 18.0406 101.938 18.0406C102.438 18.0406 102.795 18.2207 102.999 18.574C103.252 19.0227 103.252 19.7116 103.252 20.3205V24.1137H105.126V20.1904C105.127 19.219 105.044 18.1214 104.436 17.3416Z" fill="#4E20E4"/>
<path d="M110.202 16.3964C108.04 16.3964 106.409 18.1137 106.409 20.3921C106.409 22.7212 107.933 24.2869 110.202 24.2869C111.709 24.2869 112.719 23.7442 113.582 22.4726L113.614 22.4249L112.334 21.5659L112.303 21.6182C111.841 22.3972 111.224 22.7443 110.303 22.7443C109.076 22.7443 108.414 21.7976 108.29 20.8393H113.684L113.691 20.7908C113.737 20.5029 113.764 20.1704 113.764 19.9017C113.765 17.8704 112.267 16.3964 110.202 16.3964ZM110.246 17.9105C111.121 17.9105 111.791 18.5624 111.859 19.4692H108.401C108.565 18.8557 109.018 17.9105 110.246 17.9105Z" fill="#4E20E4"/>
<path d="M49.9189 15.7214C50.5349 15.7214 51.0343 15.222 51.0343 14.6061C51.0343 13.9901 50.5349 13.4907 49.9189 13.4907C49.3029 13.4907 48.8036 13.9901 48.8036 14.6061C48.8036 15.222 49.3029 15.7214 49.9189 15.7214Z" fill="#4E20E4"/>
<path d="M90.9268 15.7214C91.5427 15.7214 92.0421 15.222 92.0421 14.6061C92.0421 13.9901 91.5427 13.4907 90.9268 13.4907C90.3108 13.4907 89.8114 13.9901 89.8114 14.6061C89.8114 15.222 90.3108 15.7214 90.9268 15.7214Z" fill="#4E20E4"/>
</svg>