
<svg width="84px" height="33px" viewBox="0 0 84 33" version="1.1" xmlns="http://www.w3.org/2000/svg" xmlns:xlink="http://www.w3.org/1999/xlink">
    <g id="Simbolos" stroke="none" stroke-width="1" fill="none" fill-rule="evenodd">
        <g id="Main_Header_Ofertas" transform="translate(-43.000000, -11.000000)" fill="#12A47B" fill-rule="nonzero">
            <g id="O2R_logo" transform="translate(43.000000, 11.000000)">
                <path d="M19.5529158,3.58887043 C17.937365,1.20431894 15.0863931,0 10.9762419,0 C6.86609071,0 4.01511879,1.20431894 2.42332613,3.61295681 C0.807775378,5.99750831 0,9.68272425 0,14.6445183 C0,19.6063123 0.784017279,23.2433555 2.37580994,25.5315615 C3.96760259,27.8438538 6.81857451,29 11,29 C15.1576674,29 18.0323974,27.8679402 19.6241901,25.627907 C21.2159827,23.3878738 22,19.7267442 22,14.7167774 C22,9.68272425 21.1684665,5.97342193 19.5529158,3.58887043 Z M17.1771058,23.5805648 C17.0345572,23.8214286 16.8682505,24.038206 16.6781857,24.2549834 L16.0842333,22.6171096 L14.6587473,18.6428571 L13.2095032,22.6171096 L12.3304536,25.0498339 L10.7386609,20.6179402 L8.57667387,14.6204319 L6.39092873,20.6179402 L5.13174946,24.0622924 C5.01295896,23.8936877 4.87041037,23.7250831 4.77537797,23.5564784 C3.7062635,21.75 3.15982721,18.7873754 3.15982721,14.6445183 C3.15982721,10.5257475 3.7062635,7.51495017 4.77537797,5.61212625 C5.86825054,3.7333887 7.91144708,2.76993355 10.9287257,2.76993355 C13.9460043,2.76993355 15.9892009,3.7333887 17.1058315,5.61212625 C18.1987041,7.51495017 18.7451404,10.5498339 18.7451404,14.692691 C18.7688985,18.8596346 18.2462203,21.8222591 17.1771058,23.5805648 Z" id="Shape"></path>
                <path d="M33.9133858,22.4794521 L33.9133858,28.9767123 L32,28.9767123 L32,12 L38.3779528,12 C40.1968504,12 41.5669291,12.4191781 42.488189,13.2575342 C43.4094488,14.0958904 43.8582677,15.4 43.8582677,17.169863 C43.8582677,19.7780822 42.7952756,21.4315068 40.6929134,22.1068493 L44,29 L41.8740157,29 L38.7559055,22.5027397 L33.9133858,22.5027397 L33.9133858,22.4794521 Z M38.3779528,20.8027397 C40.7165354,20.8027397 41.8976378,19.6150685 41.8976378,17.239726 C41.8976378,14.8643836 40.7165354,13.6767123 38.3543307,13.6767123 L33.8897638,13.6767123 L33.8897638,20.8260274 L38.3779528,20.8260274 L38.3779528,20.8027397 Z" id="Shape"></path>
                <path d="M55.0871671,16 L57,16 L57,28.7579143 L55.0871671,28.7579143 L55.0871671,27.8621974 C53.8038741,28.6368715 52.5447942,29 51.3099274,29 C49.566586,29 48.4285714,28.5400372 47.8474576,27.6443203 C47.2663438,26.7486034 47,25.0782123 47,22.6331471 L47,16 L48.9128329,16 L48.9128329,22.6331471 C48.9128329,24.4972067 49.0823245,25.7318436 49.3970944,26.3612663 C49.7118644,26.990689 50.4624697,27.3054004 51.6004843,27.3054004 C52.157385,27.3054004 52.7384988,27.2327747 53.3196126,27.0633147 C53.9007264,26.8938547 54.3365617,26.7486034 54.6513317,26.603352 L55.1113801,26.3854749 L55.1113801,16 L55.0871671,16 Z" id="Path"></path>
                <path d="M61,28.9758813 L61,16.2653061 L62.7269373,16.2653061 L62.7269373,18.0018553 C64.0774908,16.9888683 65.4944649,16.3135436 67,16 L67,17.9294991 C66.3579336,18.0742115 65.6715867,18.2671614 64.9630996,18.5565863 C64.2546125,18.8460111 63.7232472,19.0871985 63.3468635,19.3283859 L62.7712177,19.6660482 L62.7712177,29 L61,29 L61,28.9758813 Z" id="Path"></path>
                <path d="M78.5631692,20.0164534 L78.5631692,26.4332724 C78.6102784,27.0511883 79.0813704,27.4076782 80,27.5265082 L79.9293362,29 C78.633833,29 77.6445396,28.6672761 76.9850107,28.0018282 C75.5010707,28.6672761 74.0171306,29 72.509636,29 C71.379015,29 70.5074946,28.6672761 69.8950749,28.0255941 C69.3062099,27.3839122 69,26.4332724 69,25.2212066 C69,24.0091408 69.3062099,23.1060329 69.9186296,22.535649 C70.5310493,21.9652651 71.496788,21.6087751 72.7922912,21.4661792 L76.6788009,21.0859232 L76.6788009,20.0164534 C76.6788009,19.1608775 76.490364,18.5667276 76.137045,18.1864717 C75.7837259,17.8299817 75.2655246,17.6398537 74.6531049,17.6398537 C73.3340471,17.6398537 71.9678801,17.7349177 70.5310493,17.9012797 L69.7537473,17.9725777 L69.6830835,16.5466179 C71.496788,16.190128 73.1220557,16 74.5117773,16 C75.9250535,16 76.9379015,16.3327239 77.5738758,16.9744059 C78.2334047,17.6160878 78.5631692,18.6380256 78.5631692,20.0164534 Z M70.9079229,25.1261426 C70.9079229,26.6709324 71.5438972,27.4314442 72.7922912,27.4314442 C73.9229122,27.4314442 75.0299786,27.2413163 76.1134904,26.8610603 L76.6788009,26.6709324 L76.6788009,22.511883 L73.0042827,22.8683729 C72.2505353,22.9396709 71.732334,23.1535649 71.4025696,23.5100548 C71.0728051,23.8903108 70.9079229,24.4131627 70.9079229,25.1261426 Z" id="Shape"></path>
                <polygon id="Path" points="82 29 82 11 84 11 84 29"></polygon>
                <path d="M28,33 L23,33 L23,31.6046512 L24.6438356,29.9069767 C25.2374429,29.3023256 25.6255708,28.8372093 25.8538813,28.5116279 C26.0821918,28.1860465 26.196347,27.8372093 26.196347,27.4651163 C26.196347,27.0930233 26.1050228,26.8372093 25.8995434,26.6744186 C25.716895,26.5348837 25.4429224,26.4418605 25.0776256,26.4418605 C24.5525114,26.4418605 23.9817352,26.4883721 23.3652968,26.5813953 L23.0913242,26.627907 L23,25.3488372 C23.7534247,25.1162791 24.5525114,25 25.3744292,25 C27.0182648,25 27.8173516,25.744186 27.8173516,27.255814 C27.8173516,27.8372093 27.7031963,28.3488372 27.4520548,28.7674419 C27.2009132,29.1860465 26.7442922,29.7209302 26.1050228,30.3255814 L24.7579909,31.5581395 L27.9543379,31.5581395 L27.9543379,33 L28,33 Z" id="Path"></path>
            </g>
        </g>
    </g>
</svg>