<svg width="127" height="20" viewBox="0 0 127 20" fill="none" xmlns="http://www.w3.org/2000/svg">
<path d="M8.32249 20C4.05722 20 1.37841 18.4655 0.104031 15.3186L0 15.0585L3.38101 13.29L3.51105 13.5761C4.18725 15.2666 6.0078 16.2809 8.37451 16.2809C9.28478 16.2809 12.2757 16.0988 12.2757 13.8362C12.2757 12.4837 11.0273 11.7295 8.32249 11.4434C4.65539 11.0013 0.884264 9.96099 0.884264 5.61769C0.884264 1.76853 4.57737 0.0260078 8.24447 0C11.8856 0 14.4603 1.30039 15.6827 3.79714L15.8127 4.05722L12.5618 5.77373L12.4317 5.53966C11.8856 4.62939 10.2731 3.64109 8.3485 3.64109C6.18986 3.64109 4.86346 4.44733 4.86346 5.77373C4.86346 7.07412 6.39792 7.51625 8.6866 7.77633C12.6398 8.27048 16.3069 9.3368 16.3069 13.8882C16.2809 16.8531 14.2003 20 8.32249 20Z" fill="white"/>
<path d="M28.9728 19.948C22.2887 19.948 19.2979 15.0585 19.2979 10.2471C19.2979 4.49938 23.4071 0.338135 29.0508 0.338135C31.8076 0.364143 34.1743 1.30042 35.8908 3.04295C37.6594 4.86349 38.6737 7.46427 38.6476 10.2211C38.5956 15.0586 35.5787 19.948 28.9728 19.948ZM29.0508 4.03124C27.3863 4.03124 25.9558 4.60341 24.9155 5.66973C23.7972 6.81408 23.225 8.45257 23.277 10.2731C23.3551 13.134 24.8895 16.2029 28.9988 16.2029C33.108 16.2029 34.6425 13.134 34.6945 10.2471C34.7205 6.03384 31.8856 4.08326 29.0508 4.03124Z" fill="white"/>
<path d="M58.8296 19.5319H55.6047L46.3199 7.90644V19.5319H42.2887V0.67627H45.5136L54.7984 12.4058V0.67627H58.8296V19.5319Z" fill="white"/>
<path d="M72.1976 19.948C65.5136 19.948 62.5228 15.0585 62.5228 10.2471C62.5228 4.49938 66.632 0.338135 72.2757 0.338135C75.0325 0.364143 77.3992 1.30042 79.1157 3.04295C80.8842 4.86349 81.8986 7.46427 81.8725 10.2211C81.7945 15.0586 78.8036 19.948 72.1976 19.948ZM72.2757 4.03124C70.6112 4.03124 69.1807 4.60341 68.1404 5.66973C67.0221 6.81408 66.4499 8.45257 66.5019 10.2731C66.58 13.134 68.1144 16.2029 72.2237 16.2029C76.3329 16.2029 77.8673 13.134 77.9194 10.2471C77.9454 6.03384 75.1105 4.08326 72.2757 4.03124Z" fill="white"/>
<path d="M103.043 19.5318H102.393H98.1014L92.7958 13.42H89.7269V19.5318H85.6957V0.650146H85.9818C87.4382 0.650146 88.8687 0.650147 90.3251 0.676154C91.7815 0.676154 93.212 0.702162 94.6684 0.702162C97.9714 0.72817 101.534 2.70476 101.534 7.04807C101.534 10.091 99.948 12.1976 97.1651 12.9518L103.043 19.5318ZM89.7269 9.75288H94.6684C96.775 9.75288 97.5033 8.34846 97.5033 7.12609C97.5033 5.90372 96.749 4.4993 94.6684 4.4993H89.7269V9.75288Z" fill="white"/>
<path d="M126.372 19.5319H121.977L120.442 16.0989H111.261L109.701 19.5319H105.332L113.784 0.67627H117.919L126.372 19.5319ZM112.9 12.3018H118.804L115.865 5.53973L112.9 12.3018Z" fill="white"/>
</svg>
